<svg width="18" height="14" viewBox="0 0 18 14" fill="none" xmlns="http://www.w3.org/2000/svg">
<path d="M17.75 2.625V11.375C17.75 11.8723 17.5525 12.3492 17.2008 12.7008C16.8492 13.0524 16.3723 13.25 15.875 13.25H2.125C1.62772 13.25 1.15081 13.0524 0.799175 12.7008C0.447544 12.3492 0.25 11.8723 0.25 11.375V2.625C0.252028 2.41125 0.292243 2.19959 0.36875 2L7.9625 7.0625C8.26997 7.26674 8.63088 7.3757 9 7.3757C9.36912 7.3757 9.73003 7.26674 10.0375 7.0625L17.6313 2C17.7078 2.19959 17.748 2.41125 17.75 2.625ZM9.34375 6.01875L16.8438 1.01875C16.5513 0.842653 16.2164 0.749729 15.875 0.750001H2.125C1.78517 0.752748 1.45248 0.847803 1.1625 1.025L8.6625 6.025C8.76449 6.08997 8.88313 6.12396 9.00405 6.12285C9.12497 6.12175 9.24297 6.08558 9.34375 6.01875Z" fill="#3C3C3C"/>
</svg>
