<svg width="360" height="120" viewBox="0 0 360 120" fill="none" xmlns="http://www.w3.org/2000/svg">
<rect width="360" height="120" rx="44" fill="white"/>
<path d="M43.9297 28.4707L55.836 28.4711V53.9763H72.0652L72.0648 28.4711L83.9639 28.4707V76.9388H72.0652V66.0297H55.836V91.5354H43.9305L43.9297 28.4707Z" fill="#487BFF"/>
<path d="M69.8445 28.4688H57.9395V51.8418H69.8445V28.4688Z" fill="#3C3C3C"/>
<path d="M93.9774 91.5327H57.9395V68.1601L69.8445 68.1261V79.4186H86.067C86.067 79.4186 93.9774 79.8065 93.9774 73.7727C93.9774 67.7385 86.067 68.1261 86.067 68.1261V51.841C86.067 51.841 93.9774 52.3653 93.9774 46.1944C93.9774 40.538 86.067 40.5481 86.067 40.5481V28.468C86.067 28.468 105.745 27.9878 105.745 46.1944C105.745 56.9901 97.7647 60.0001 97.7647 60.0001C97.7647 60.0001 107.639 62.3382 107.639 73.7723C107.639 91.9586 93.9774 91.5327 93.9774 91.5327Z" fill="#3C3C3C"/>
<path d="M148.951 79.39V62.6487H136.068V79.39H128.93V40.9346H136.068V56.3815H148.951V40.9346H156.088V79.39H148.951Z" fill="#487BFF"/>
<path d="M188.555 62.1485C188.555 62.6392 188.541 63.2771 188.511 64.0611C188.483 64.8458 188.439 65.5813 188.381 66.2677H168.999C168.999 67.582 169.197 68.7389 169.593 69.7393C169.99 70.7401 170.551 71.5786 171.276 72.2554C172.002 72.9322 172.872 73.4467 173.888 73.7998C174.904 74.153 176.03 74.3298 177.268 74.3298C178.7 74.3298 180.233 74.2177 181.868 73.9916C183.502 73.7663 185.199 73.3982 186.96 72.8881V78.5962C186.205 78.8118 185.383 79.008 184.493 79.1844C183.604 79.3612 182.694 79.5173 181.766 79.6552C180.837 79.7916 179.898 79.8951 178.951 79.9639C178.003 80.0326 177.084 80.0674 176.195 80.0674C173.95 80.0674 171.939 79.743 170.16 79.0962C168.38 78.4486 166.871 77.4927 165.633 76.2274C164.395 74.9624 163.447 73.3982 162.789 71.5345C162.131 69.6709 161.803 67.5136 161.803 65.0615C161.803 62.6295 162.131 60.4176 162.789 58.4266C163.447 56.4363 164.375 54.7297 165.575 53.307C166.774 51.8851 168.23 50.7868 169.941 50.0118C171.653 49.2371 173.563 48.8496 175.672 48.8496C177.761 48.8496 179.608 49.1785 181.214 49.8354C182.819 50.4928 184.164 51.4098 185.247 52.5865C186.33 53.7637 187.151 55.1662 187.713 56.7939C188.274 58.4221 188.555 60.2068 188.555 62.1485ZM181.359 61.119C181.378 59.9419 181.233 58.9172 180.924 58.0443C180.615 57.1717 180.194 56.4509 179.662 55.8817C179.13 55.313 178.511 54.8915 177.805 54.6168C177.099 54.3421 176.339 54.2046 175.527 54.2046C173.747 54.2046 172.287 54.8077 171.146 56.014C170.005 57.2203 169.328 58.9225 169.115 61.119H181.359Z" fill="#487BFF"/>
<path d="M218.958 79.0957C217.682 79.3902 216.395 79.6252 215.099 79.8016C213.803 79.9784 212.575 80.067 211.415 80.067C209.48 80.067 207.812 79.8603 206.409 79.4489C205.006 79.0367 203.846 78.4097 202.927 77.5658C202.008 76.7232 201.332 75.6488 200.896 74.3439C200.461 73.0397 200.243 71.486 200.243 69.6806V55.0868H192.322V49.4964H200.243V41.8462L207.497 39.9336V49.496H218.958V55.0864H207.497V69.1503C207.497 70.8569 207.884 72.1469 208.658 73.0195C209.431 73.892 210.727 74.3285 212.546 74.3285C213.706 74.3285 214.838 74.2306 215.941 74.034C217.043 73.8386 218.048 73.6125 218.958 73.3577V79.0957H218.958Z" fill="#487BFF"/>
<path d="M226.461 79.39V40.9346H238.705C243.019 40.9346 246.254 41.6995 248.411 43.2294C250.568 44.7593 251.646 47.0739 251.646 50.1733C251.646 51.1345 251.534 52.0709 251.312 52.9831C251.089 53.8953 250.746 54.7339 250.282 55.4988C249.818 56.2638 249.238 56.9405 248.541 57.5291C247.845 58.1177 247.022 58.5788 246.075 58.9117C247.022 59.0691 247.927 59.3781 248.788 59.8389C249.648 60.3 250.403 60.8979 251.051 61.6337C251.699 62.3695 252.211 63.2372 252.589 64.238C252.966 65.2384 253.154 66.3565 253.154 67.5923C253.154 71.5153 251.859 74.4622 249.267 76.4338C246.674 78.405 242.931 79.3908 238.038 79.3908H226.461V79.39ZM244.218 51.4387C244.218 50.7134 244.102 50.0556 243.87 49.4671C243.638 48.8785 243.265 48.3785 242.753 47.9667C242.24 47.5545 241.582 47.2361 240.78 47.0104C239.977 46.7851 239.005 46.6718 237.864 46.6718H233.541V56.8523H237.864C239.025 56.8523 240.006 56.7103 240.809 56.4256C241.612 56.1416 242.269 55.7488 242.782 55.2484C243.295 54.7484 243.662 54.1744 243.885 53.5272C244.107 52.8804 244.218 52.1842 244.218 51.4387ZM238.532 73.4764C239.672 73.4764 240.673 73.3287 241.534 73.0342C242.395 72.7402 243.116 72.334 243.696 71.8134C244.276 71.294 244.716 70.6804 245.016 69.9741C245.316 69.2682 245.466 68.5134 245.466 67.7092C245.466 66.0422 244.852 64.7372 243.624 63.7959C242.395 62.8546 240.514 62.3837 237.98 62.3837H233.541V73.4764H238.532Z" fill="#3C3C3C"/>
<path d="M285.971 64.2083C285.971 66.5622 285.642 68.7151 284.985 70.6664C284.327 72.6187 283.379 74.2905 282.141 75.6829C280.903 77.076 279.385 78.1541 277.586 78.9194C275.786 79.6844 273.736 80.0674 271.434 80.0674C269.248 80.0674 267.295 79.743 265.574 79.0962C263.851 78.4486 262.391 77.483 261.192 76.1982C259.992 74.9135 259.074 73.3051 258.436 71.3727C257.798 69.4412 257.479 67.1904 257.479 64.6201C257.479 62.2472 257.812 60.0891 258.479 58.147C259.147 56.2054 260.104 54.548 261.352 53.1747C262.6 51.8022 264.123 50.7379 265.922 49.9823C267.721 49.2274 269.752 48.8496 272.015 48.8496C274.22 48.8496 276.183 49.1785 277.905 49.8354C279.627 50.4928 281.087 51.4685 282.286 52.7629C283.485 54.0574 284.399 55.6613 285.028 57.5738C285.657 59.486 285.971 61.6979 285.971 64.2083ZM278.601 64.3851C278.601 61.2861 278.026 58.9565 276.875 57.3971C275.723 55.8376 274.026 55.0577 271.783 55.0577C270.544 55.0577 269.49 55.3033 268.62 55.7932C267.749 56.2838 267.034 56.9553 266.473 57.8085C265.911 58.6616 265.5 59.6575 265.24 60.795C264.978 61.9329 264.848 63.1489 264.848 64.4438C264.848 67.5622 265.467 69.9116 266.705 71.4905C267.942 73.0693 269.635 73.8585 271.782 73.8585C272.962 73.8585 273.987 73.6186 274.858 73.1381C275.728 72.6575 276.434 71.9904 276.976 71.1373C277.517 70.2842 277.923 69.279 278.195 68.1216C278.466 66.9647 278.601 65.7192 278.601 64.3851Z" fill="#3C3C3C"/>
<path d="M316.068 79.0957C314.791 79.3902 313.504 79.6252 312.209 79.8016C310.913 79.9784 309.684 80.067 308.524 80.067C306.589 80.067 304.921 79.8603 303.518 79.4489C302.116 79.0367 300.955 78.4097 300.036 77.5658C299.118 76.7232 298.441 75.6488 298.005 74.3439C297.57 73.0397 297.352 71.486 297.352 69.6806V55.0868H289.432V49.4964H297.352V41.8462L304.607 39.9336V49.496H316.067V55.0864H304.607V69.1503C304.607 70.8569 304.994 72.1469 305.767 73.0195C306.54 73.892 307.837 74.3285 309.655 74.3285C310.816 74.3285 311.947 74.2306 313.05 74.034C314.152 73.8386 315.158 73.6125 316.067 73.3577V79.0957H316.068Z" fill="#3C3C3C"/>
</svg>
