<svg width="24" height="24" viewBox="0 0 24 24" fill="none" xmlns="http://www.w3.org/2000/svg">
<path d="M16 21.9574V17.0426C16 17.0191 15.939 17 15.8636 17H8.13636C8.06105 17 8 17.0191 8 17.0426V21.9574C8 21.9809 8.06105 22 8.13636 22H15.8636C15.939 22 16 21.9809 16 21.9574Z" fill="#FFB423"/>
<path d="M16.5 3H14.625V1.125C14.625 0.504844 14.1202 0 13.5 0H10.5C9.87984 0 9.375 0.504844 9.375 1.125V3H7.5C6.46594 3 5.625 3.84094 5.625 4.875V22.125C5.625 23.1591 6.46594 24 7.5 24H16.5C17.5341 24 18.375 23.1591 18.375 22.125V4.875C18.375 3.84094 17.5341 3 16.5 3ZM16.875 21.75C16.875 22.1634 16.5384 22.5 16.125 22.5H7.875C7.46156 22.5 7.125 22.1634 7.125 21.75V5.25C7.125 4.83656 7.46156 4.5 7.875 4.5H16.125C16.5384 4.5 16.875 4.83656 16.875 5.25V21.75Z" fill="#FFB423"/>
</svg>
