<svg width="24" height="24" viewBox="0 0 24 24" fill="none" xmlns="http://www.w3.org/2000/svg">
<path fill-rule="evenodd" clip-rule="evenodd" d="M9.625 3H11.5C12.5341 3 13.375 3.84094 13.375 4.875V22.125C13.375 23.1591 12.5341 24 11.5 24H2.5C1.46594 24 0.625 23.1591 0.625 22.125V4.875C0.625 3.84094 1.46594 3 2.5 3H4.375V1.125C4.375 0.504844 4.87984 0 5.5 0H8.5C9.12016 0 9.625 0.504844 9.625 1.125V3ZM11.125 22.5C11.5384 22.5 11.875 22.1634 11.875 21.75V5.25C11.875 4.83656 11.5384 4.5 11.125 4.5H2.875C2.46156 4.5 2.125 4.83656 2.125 5.25V21.75C2.125 22.1634 2.46156 22.5 2.875 22.5H11.125ZM11.125 5.39062V21.6094C11.125 21.687 11.062 21.75 10.9844 21.75H3.01562C2.93795 21.75 2.875 21.687 2.875 21.6094V5.39062C2.875 5.31295 2.93795 5.25 3.01562 5.25H10.9844C11.062 5.25 11.125 5.31295 11.125 5.39062Z" fill="#008926"/>
</svg>
