<svg width="24" height="24" viewBox="0 0 24 24" fill="none" xmlns="http://www.w3.org/2000/svg">
<path fill-rule="evenodd" clip-rule="evenodd" d="M0 12C0 5.37258 5.37258 0 12 0C5.37297 0 0 5.37297 0 12ZM2.25004 12C2.25004 17.385 6.61503 21.75 12 21.75C17.385 21.75 21.75 17.385 21.75 12C21.75 6.61503 17.385 2.25004 12 2.25004C6.61503 2.25004 2.25004 6.61503 2.25004 12ZM10.491 6.43574C10.491 5.71126 11.1413 5.26273 12.0008 5.26273C12.8393 5.26273 13.5105 5.72846 13.5105 6.43574V13.0807C13.5105 13.7872 12.8393 14.253 12.0008 14.253C11.1412 14.253 10.491 13.806 10.491 13.0807V6.43574ZM10.503 17.2485C10.503 16.422 11.175 15.75 12.0008 15.75C12.8265 15.75 13.4977 16.422 13.4978 17.2485C13.4978 18.0735 12.8265 18.7455 12.0008 18.7455C11.175 18.7455 10.503 18.0735 10.503 17.2485Z" fill="#FF2C61"/>
</svg>
