<svg width="24" height="22" viewBox="0 0 24 22" fill="none" xmlns="http://www.w3.org/2000/svg">
<path d="M23.6006 17.3581L14.1593 1.75811C13.0718 -0.0545489 10.4355 -0.0747053 9.32928 1.77029L0.401933 17.3515C-0.717443 19.2284 0.633964 21.6054 2.8174 21.6054H21.1813C23.3793 21.6054 24.7106 19.2068 23.6006 17.3581ZM11.748 18.7929C10.9727 18.7929 10.3417 18.162 10.3417 17.3867C10.3417 16.6114 10.9727 15.9804 11.748 15.9804C12.5228 15.9804 13.1542 16.6114 13.1542 17.3867C13.1542 18.162 12.5228 18.7929 11.748 18.7929ZM13.173 11.7617C13.173 12.537 12.5228 13.1679 11.748 13.1679C10.9727 13.1679 10.3511 12.537 10.3511 11.7617V6.1367C10.3511 5.36139 10.9727 4.73045 11.748 4.73045C12.5228 4.73045 13.173 5.36139 13.173 6.1367V11.7617Z" fill="#FFB423"/>
</svg>
