<svg width="24" height="24" viewBox="0 0 24 24" fill="none" xmlns="http://www.w3.org/2000/svg">
<g clip-path="url(#clip0_202_7552)">
<path d="M23.6006 18.3581L14.1593 2.75811C13.0718 0.945451 10.4355 0.925295 9.32928 2.77029L0.401933 18.3515C-0.717443 20.2284 0.633964 22.6054 2.8174 22.6054H21.1813C23.3793 22.6054 24.7106 20.2068 23.6006 18.3581ZM11.748 19.7929C10.9727 19.7929 10.3417 19.162 10.3417 18.3867C10.3417 17.6114 10.9727 16.9804 11.748 16.9804C12.5228 16.9804 13.1542 17.6114 13.1542 18.3867C13.1542 19.162 12.5228 19.7929 11.748 19.7929ZM13.173 12.7617C13.173 13.537 12.5228 14.1679 11.748 14.1679C10.9727 14.1679 10.3511 13.537 10.3511 12.7617V7.1367C10.3511 6.36139 10.9727 5.73045 11.748 5.73045C12.5228 5.73045 13.173 6.36139 13.173 7.1367V12.7617Z" fill="#FFB423"/>
</g>
<defs>
<clipPath id="clip0_202_7552">
<rect width="24" height="24" fill="white"/>
</clipPath>
</defs>
</svg>
