<svg width="56" height="56" viewBox="0 0 56 56" fill="none" xmlns="http://www.w3.org/2000/svg">
<g filter="url(#filter0_d_202_7421)">
<circle cx="28" cy="28" r="24" fill="white"/>
</g>
<path d="M28 16C21.3676 16 16 21.367 16 28C16 34.6323 21.367 40 28 40C34.6324 40 40 34.633 40 28C40 21.3677 34.633 16 28 16ZM29.2323 32.7635C29.2323 33.1426 28.6795 33.5216 28.0002 33.5216C27.2894 33.5216 26.784 33.1426 26.784 32.7635V26.7453C26.784 26.3031 27.2895 26.0029 28.0002 26.0029C28.6795 26.0029 29.2323 26.3031 29.2323 26.7453V32.7635ZM28.0003 24.5498C27.2737 24.5498 26.7051 24.0128 26.7051 23.4125C26.7051 22.8122 27.2737 22.291 28.0003 22.291C28.7111 22.291 29.2798 22.8122 29.2798 23.4125C29.2798 24.0128 28.711 24.5498 28.0003 24.5498Z" fill="#487BFF"/>
<defs>
<filter id="filter0_d_202_7421" x="0" y="0" width="56" height="56" filterUnits="userSpaceOnUse" color-interpolation-filters="sRGB">
<feFlood flood-opacity="0" result="BackgroundImageFix"/>
<feColorMatrix in="SourceAlpha" type="matrix" values="0 0 0 0 0 0 0 0 0 0 0 0 0 0 0 0 0 0 127 0" result="hardAlpha"/>
<feOffset/>
<feGaussianBlur stdDeviation="2"/>
<feComposite in2="hardAlpha" operator="out"/>
<feColorMatrix type="matrix" values="0 0 0 0 0 0 0 0 0 0 0 0 0 0 0 0 0 0 0.25 0"/>
<feBlend mode="normal" in2="BackgroundImageFix" result="effect1_dropShadow_202_7421"/>
<feBlend mode="normal" in="SourceGraphic" in2="effect1_dropShadow_202_7421" result="shape"/>
</filter>
</defs>
</svg>
