<svg width="42" height="42" viewBox="0 0 42 42" fill="none" xmlns="http://www.w3.org/2000/svg">
<circle cx="21" cy="21" r="21" fill="#18AB88"/>
<path d="M36.8995 19.2237C36.849 18.7739 36.3243 18.4356 35.8707 18.4356C34.4046 18.4356 33.1034 17.5751 32.5578 16.2432C32.0007 14.8794 32.3601 13.2892 33.4525 12.2871C33.7965 11.9725 33.8384 11.4458 33.55 11.0802C32.7994 10.1273 31.9466 9.26636 31.0153 8.52031C30.6509 8.22803 30.1154 8.26872 29.7992 8.6187C28.8456 9.67488 27.1324 10.0674 25.8086 9.51504C24.4315 8.93561 23.5622 7.53968 23.6476 6.04135C23.6757 5.57041 23.3314 5.1612 22.8621 5.10654C21.6668 4.96815 20.461 4.96413 19.2623 5.09712C18.799 5.14833 18.4549 5.54786 18.4703 6.01284C18.5222 7.49651 17.6431 8.8678 16.2793 9.42648C14.9714 9.96079 13.2701 9.57123 12.3184 8.52432C12.0039 8.17946 11.4778 8.13711 11.111 8.42316C10.1522 9.17558 9.2802 10.037 8.52265 10.9822C8.22746 11.3497 8.27106 11.8822 8.618 12.1978C9.73191 13.2066 10.091 14.8105 9.5127 16.1902C8.96052 17.5056 7.59474 18.353 6.03134 18.353C5.524 18.3366 5.16294 18.6775 5.1069 19.1389C4.96629 20.3405 4.96477 21.5655 5.10011 22.777C5.15063 23.2287 5.69077 23.5641 6.14939 23.5641C7.54298 23.5287 8.88011 24.3909 9.44184 25.7563C10.0008 27.1202 9.64098 28.7097 8.54687 29.7131C8.20463 30.0277 8.1609 30.5532 8.44986 30.9184C9.19288 31.8654 10.0465 32.7268 10.9806 33.4793C11.3473 33.7746 11.8807 33.7332 12.1986 33.3828C13.156 32.3241 14.8688 31.9323 16.1873 32.4858C17.5684 33.0637 18.4372 34.4595 18.3524 35.9582C18.3246 36.4291 18.6697 36.8396 19.1373 36.893C19.749 36.9646 20.3639 37 20.9807 37C21.5661 37 22.1516 36.968 22.7372 36.9029C23.201 36.8516 23.5445 36.4517 23.5289 35.9866C23.4753 34.5036 24.3563 33.1322 25.7185 32.5746C27.0351 32.0368 28.7288 32.4304 29.681 33.4758C29.9973 33.82 30.5201 33.8618 30.8885 33.5768C31.8456 32.8263 32.7159 31.9653 33.4768 31.0176C33.7723 30.6509 33.7303 30.1177 33.3815 29.8014C32.2678 28.7934 31.9068 27.1888 32.4851 25.8104C33.0287 24.5128 34.3437 23.6415 35.758 23.6415L35.9559 23.6467C36.4151 23.684 36.8371 23.3304 36.8926 22.8619C37.0339 21.6592 37.0354 20.4356 36.8995 19.2237ZM20.9999 30.2242C15.9054 30.2242 11.7757 26.0946 11.7757 21.0002C11.7757 15.9058 15.9055 11.7762 20.9999 11.7762C26.0944 11.7762 30.2242 15.9058 30.2242 21.0002C30.2242 22.7294 29.7475 24.3467 28.9195 25.7298L24.8804 21.6906C25.1728 21.0012 25.3273 20.2537 25.3271 19.4823C25.3271 17.9718 24.7388 16.5518 23.6706 15.4839C22.6026 14.4159 21.1826 13.8278 19.6724 13.8278C19.1683 13.8278 18.6667 13.8948 18.1813 14.0269C17.9688 14.0849 17.795 14.2601 17.7384 14.4731C17.6805 14.6909 17.7457 14.9141 17.9159 15.0845C17.9159 15.0845 19.91 17.0939 20.5772 17.7609C20.647 17.8308 20.6469 17.9976 20.6371 18.0576L20.6309 18.1015C20.5636 18.835 20.4339 19.7154 20.3269 20.0538C20.3126 20.068 20.299 20.08 20.2843 20.0947C20.269 20.1101 20.2548 20.1249 20.24 20.1401C19.8972 20.2501 19.0032 20.3813 18.2581 20.448L18.2583 20.444L18.2248 20.4525C18.2188 20.4531 18.2078 20.454 18.1931 20.454C18.1126 20.454 17.9941 20.4314 17.8864 20.3239C17.192 19.6295 15.2761 17.7273 15.2761 17.7273C15.1042 17.556 14.9279 17.52 14.8104 17.52C14.5365 17.52 14.2913 17.7179 14.2141 18.0017C13.6867 19.9534 14.2458 22.0528 15.6736 23.4807C16.7418 24.5488 18.162 25.1369 19.6725 25.1369C20.4439 25.1369 21.1913 24.9826 21.8807 24.6902L25.9636 28.7731C24.5301 29.6903 22.8279 30.2242 20.9999 30.2242Z" fill="white"/>
</svg>
