<svg width="32" height="32" viewBox="0 0 32 32" fill="none" xmlns="http://www.w3.org/2000/svg">
<ellipse cx="16" cy="16.5" rx="12" ry="11.5" fill="white"/>
<path d="M31.8995 14.2237C31.849 13.7739 31.3243 13.4356 30.8707 13.4356C29.4046 13.4356 28.1034 12.5751 27.5578 11.2432C27.0007 9.8794 27.3601 8.28918 28.4525 7.28711C28.7965 6.97255 28.8384 6.44584 28.55 6.08022C27.7994 5.12728 26.9466 4.26636 26.0153 3.52031C25.6509 3.22803 25.1154 3.26872 24.7992 3.6187C23.8456 4.67488 22.1324 5.06735 20.8086 4.51504C19.4315 3.93561 18.5622 2.53968 18.6476 1.04135C18.6757 0.570414 18.3314 0.161199 17.8621 0.106535C16.6668 -0.0318536 15.461 -0.0358669 14.2623 0.0971246C13.799 0.148328 13.4549 0.547856 13.4703 1.01284C13.5222 2.49651 12.6431 3.8678 11.2793 4.42648C9.97137 4.96079 8.27014 4.57123 7.31843 3.52432C7.00386 3.17946 6.47784 3.13711 6.11097 3.42316C5.1522 4.17558 4.2802 5.03705 3.52265 5.98224C3.22746 6.34966 3.27106 6.88218 3.618 7.19785C4.73191 8.20656 5.09103 9.81049 4.5127 11.1902C3.96052 12.5056 2.59474 13.353 1.03134 13.353C0.524005 13.3366 0.162944 13.6775 0.106895 14.1389C-0.0337093 15.3405 -0.0352315 16.5655 0.100114 17.777C0.150627 18.2287 0.690765 18.5641 1.14939 18.5641C2.54298 18.5287 3.88011 19.3909 4.44184 20.7563C5.0008 22.1202 4.64098 23.7097 3.54687 24.7131C3.20463 25.0277 3.1609 25.5532 3.44986 25.9184C4.19288 26.8654 5.04647 27.7268 5.9806 28.4793C6.34734 28.7746 6.8807 28.7332 7.19858 28.3828C8.15596 27.3241 9.86882 26.9323 11.1873 27.4858C12.5684 28.0637 13.4372 29.4595 13.3524 30.9582C13.3246 31.4291 13.6697 31.8396 14.1373 31.893C14.749 31.9646 15.3639 32 15.9807 32C16.5661 32 17.1516 31.968 17.7372 31.9029C18.201 31.8516 18.5445 31.4517 18.5289 30.9866C18.4753 29.5036 19.3563 28.1322 20.7185 27.5746C22.0351 27.0368 23.7288 27.4304 24.681 28.4758C24.9973 28.82 25.5201 28.8618 25.8885 28.5768C26.8456 27.8263 27.7159 26.9653 28.4768 26.0176C28.7723 25.6509 28.7303 25.1177 28.3815 24.8014C27.2678 23.7934 26.9068 22.1888 27.4851 20.8104C28.0287 19.5128 29.3437 18.6415 30.758 18.6415L30.9559 18.6467C31.4151 18.684 31.8371 18.3304 31.8926 17.8619C32.0339 16.6592 32.0354 15.4356 31.8995 14.2237ZM15.9999 25.2242C10.9054 25.2242 6.77566 21.0946 6.77566 16.0002C6.77566 10.9058 10.9055 6.77618 15.9999 6.77618C21.0944 6.77618 25.2242 10.9058 25.2242 16.0002C25.2242 17.7294 24.7475 19.3467 23.9195 20.7298L19.8804 16.6906C20.1728 16.0012 20.3273 15.2537 20.3271 14.4823C20.3271 12.9718 19.7388 11.5518 18.6706 10.4839C17.6026 9.41594 16.1826 8.82779 14.6724 8.82779C14.1683 8.82779 13.6667 8.89477 13.1813 9.02693C12.9688 9.08491 12.795 9.26012 12.7384 9.4731C12.6805 9.69092 12.7457 9.91414 12.9159 10.0845C12.9159 10.0845 14.91 12.0939 15.5772 12.7609C15.647 12.8308 15.6469 12.9976 15.6371 13.0576L15.6309 13.1015C15.5636 13.835 15.4339 14.7154 15.3269 15.0538C15.3126 15.068 15.299 15.08 15.2843 15.0947C15.269 15.1101 15.2548 15.1249 15.24 15.1401C14.8972 15.2501 14.0032 15.3813 13.2581 15.448L13.2583 15.444L13.2248 15.4525C13.2188 15.4531 13.2078 15.454 13.1931 15.454C13.1126 15.454 12.9941 15.4314 12.8864 15.3239C12.192 14.6295 10.2761 12.7273 10.2761 12.7273C10.1042 12.556 9.92792 12.52 9.81042 12.52C9.53655 12.52 9.29132 12.7179 9.2141 13.0017C8.68669 14.9534 9.24579 17.0528 10.6736 18.4807C11.7418 19.5488 13.162 20.1369 14.6725 20.1369C15.4439 20.1369 16.1913 19.9826 16.8807 19.6902L20.9636 23.7731C19.5301 24.6903 17.8279 25.2242 15.9999 25.2242Z" fill="#AB1879"/>
</svg>
