<svg width="32" height="32" viewBox="0 0 32 32" fill="none" xmlns="http://www.w3.org/2000/svg">
<path d="M16 4C9.36761 4 4 9.367 4 16C4 22.6323 9.367 28 16 28C22.6324 28 28 22.633 28 16C28 9.3677 22.633 4 16 4ZM17.2323 20.7635C17.2323 21.1426 16.6795 21.5216 16.0002 21.5216C15.2894 21.5216 14.784 21.1426 14.784 20.7635V14.7453C14.784 14.3031 15.2895 14.0029 16.0002 14.0029C16.6795 14.0029 17.2323 14.3031 17.2323 14.7453V20.7635ZM16.0003 12.5498C15.2737 12.5498 14.7051 12.0128 14.7051 11.4125C14.7051 10.8122 15.2737 10.291 16.0003 10.291C16.7111 10.291 17.2798 10.8122 17.2798 11.4125C17.2798 12.0128 16.711 12.5498 16.0003 12.5498Z" fill="#3C3C3C"/>
</svg>
