<svg width="32" height="32" viewBox="0 0 32 32" fill="none" xmlns="http://www.w3.org/2000/svg">
<path d="M14.0781 8.21875C17.9873 8.21875 21.1562 7.27435 21.1562 6.10938C21.1562 4.9444 17.9873 4 14.0781 4C10.169 4 7 4.9444 7 6.10938C7 7.27435 10.169 8.21875 14.0781 8.21875Z" fill="#3C3C3C"/>
<path d="M14.0781 12.9531C17.9594 12.9531 21.1562 12.0108 21.1562 10.8438V7.51562C21.1562 9.17734 15.7435 9.625 14.0781 9.625C12.3575 9.625 7 9.16652 7 7.51562V10.8438C7 12.0108 10.1969 12.9531 14.0781 12.9531Z" fill="#3C3C3C"/>
<path d="M28.8975 16.734L27.4637 17.5745C27.2481 17.4248 27.0181 17.2922 26.7812 17.1797L26.7785 15.2969H22.5625V17.1783C22.3242 17.2909 22.0956 17.4227 21.8779 17.5731L20.4463 16.7347L18.3438 20.387L19.7658 21.2267C19.7555 21.3579 19.75 21.4904 19.75 21.625C19.75 21.7589 19.7555 21.8921 19.7658 22.0233L18.3445 22.8637L20.447 26.5173L21.8766 25.6769C22.0936 25.8273 22.3243 25.9591 22.5625 26.0724L22.5646 28H26.7812V26.0696C27.0202 25.9577 27.2482 25.8259 27.4638 25.6755L28.8975 26.516L31 22.863L29.5773 22.024C29.5882 21.8921 29.5938 21.7596 29.5938 21.625C29.5938 21.4911 29.5883 21.3586 29.578 21.2275L31 20.387L28.8975 16.734ZM24.6719 23.7344C23.5087 23.7344 22.5625 22.7882 22.5625 21.625C22.5625 20.4618 23.5087 19.5156 24.6719 19.5156C25.835 19.5156 26.7812 20.4618 26.7812 21.625C26.7812 22.7882 25.835 23.7344 24.6719 23.7344Z" fill="#3C3C3C"/>
<path d="M24.6719 22.3281C25.0602 22.3281 25.375 22.0133 25.375 21.625C25.375 21.2367 25.0602 20.9219 24.6719 20.9219C24.2835 20.9219 23.9688 21.2367 23.9688 21.625C23.9688 22.0133 24.2835 22.3281 24.6719 22.3281Z" fill="#3C3C3C"/>
<path d="M14.0781 17.6406C15.7667 17.6406 17.3636 17.4622 18.5762 17.1646L19.9344 14.8053L21.1562 15.5208C21.1562 15.1237 21.1562 12.6486 21.1562 12.25C21.1562 13.9117 15.7435 14.3594 14.0781 14.3594C12.3575 14.3594 7 13.9009 7 12.25V15.5312C7 16.6983 10.1969 17.6406 14.0781 17.6406Z" fill="#3C3C3C"/>
<path d="M14.0781 22.3281C14.9798 22.3281 15.9463 22.2654 16.8105 22.1371L17.6756 21.6255L16.4312 20.8907L17.6566 18.7621C16.6185 18.9432 15.3652 19.0469 14.0781 19.0469C10.1969 19.0469 7 18.1046 7 16.9375V19.5156C7 21.4422 10.6891 22.3281 14.0781 22.3281Z" fill="#3C3C3C"/>
</svg>
