<svg width="32" height="32" viewBox="0 0 32 32" fill="none" xmlns="http://www.w3.org/2000/svg">
<g clip-path="url(#clip0_603_2761)">
<path d="M27.5969 14.7285L16.8289 4.91679C16.3563 4.48605 15.6436 4.4861 15.1711 4.91674L4.40303 14.7286C4.02442 15.0736 3.89936 15.6052 4.08433 16.0828C4.26935 16.5604 4.71981 16.8689 5.23202 16.8689H6.95186V26.6996C6.95186 27.0894 7.26789 27.4054 7.65765 27.4054H13.5599C13.9496 27.4054 14.2657 27.0894 14.2657 26.6996V20.7307H17.7345V26.6996C17.7345 27.0894 18.0505 27.4054 18.4403 27.4054H24.3422C24.732 27.4054 25.048 27.0895 25.048 26.6996V16.8689H26.7682C27.2803 16.8689 27.7309 16.5603 27.9159 16.0828C28.1006 15.6051 27.9756 15.0736 27.5969 14.7285Z" fill="#3C3C3C"/>
<path d="M24.863 6.00391H20.123L25.5688 10.9556V6.70965C25.5688 6.31989 25.2528 6.00391 24.863 6.00391Z" fill="#3C3C3C"/>
</g>
<defs>
<clipPath id="clip0_603_2761">
<rect width="24" height="24" fill="white" transform="translate(4 4)"/>
</clipPath>
</defs>
</svg>
