<svg width="11" height="16" viewBox="0 0 11 16" fill="none" xmlns="http://www.w3.org/2000/svg">
<path d="M9.99974 8.66667C9.63108 8.66667 9.33309 8.96533 9.33309 9.33333V12C9.33309 12.3673 9.03443 12.6667 8.66644 12.6667H6.66649V2.66667C6.66649 2.09733 6.30383 1.58867 5.75852 1.39933L5.56119 1.33333H8.66644C9.03443 1.33333 9.33309 1.63267 9.33309 2V4C9.33309 4.368 9.63108 4.66667 9.99974 4.66667C10.3684 4.66667 10.6664 4.368 10.6664 4V2C10.6664 0.897333 9.76908 0 8.66644 0H1.49996C1.47463 0 1.4533 0.0113333 1.42863 0.0146667C1.39663 0.012 1.36596 0 1.3333 0C0.597984 0 0 0.598 0 1.33333V13.3333C0 13.9027 0.362657 14.4113 0.907976 14.6007L4.91987 15.938C5.05587 15.98 5.1912 16 5.33319 16C6.06851 16 6.66649 15.402 6.66649 14.6667V14H8.66644C9.76908 14 10.6664 13.1027 10.6664 12V9.33333C10.6664 8.96533 10.3684 8.66667 9.99974 8.66667Z" fill="#3C3C3C"/>
</svg>
