<svg width="137" height="33" viewBox="0 0 137 33" fill="none" xmlns="http://www.w3.org/2000/svg">
<path d="M0.464844 0.734375L6.41798 0.734577V13.4872H14.5326L14.5324 0.734577L20.482 0.734375V24.9684H14.5326V19.5139H6.41798V32.2667H0.465242L0.464844 0.734375Z" fill="#487BFF"/>
<path d="M13.4232 0.732422H7.4707V12.4189H13.4232V0.732422Z" fill="#3C3C3C"/>
<path d="M25.4897 32.2654H7.4707V20.5791L13.4232 20.5621V26.2083H21.5345C21.5345 26.2083 25.4897 26.4023 25.4897 23.3854C25.4897 20.3683 21.5345 20.5621 21.5345 20.5621V12.4195C21.5345 12.4195 25.4897 12.6817 25.4897 9.5962C25.4897 6.76802 21.5345 6.77308 21.5345 6.77308V0.733025C21.5345 0.733025 31.3736 0.492943 31.3736 9.5962C31.3736 14.9941 27.3833 16.4991 27.3833 16.4991C27.3833 16.4991 32.3206 17.6681 32.3206 23.3852C32.3206 32.4783 25.4897 32.2654 25.4897 32.2654Z" fill="#3C3C3C"/>
<path d="M52.9753 26.1926V17.8219H46.5339V26.1926H42.9648V6.96484H46.5339V14.6883H52.9753V6.96484H56.5441V26.1926H52.9753Z" fill="#487BFF"/>
<path d="M72.7784 17.5713C72.7784 17.8167 72.7714 18.1356 72.7567 18.5276C72.7425 18.92 72.7204 19.2877 72.6914 19.6309H63.0005C63.0005 20.2881 63.0994 20.8665 63.2977 21.3667C63.496 21.8671 63.7766 22.2864 64.1392 22.6248C64.502 22.9631 64.9372 23.2204 65.4448 23.397C65.9528 23.5736 66.5161 23.6619 67.1352 23.6619C67.8509 23.6619 68.6174 23.6059 69.4347 23.4929C70.2519 23.3802 71.1006 23.1961 71.9808 22.9411V25.7952C71.6034 25.903 71.1923 26.0011 70.7475 26.0893C70.3028 26.1776 69.848 26.2557 69.3839 26.3247C68.9195 26.3928 68.4502 26.4446 67.9765 26.479C67.5026 26.5134 67.0429 26.5308 66.5983 26.5308C65.4761 26.5308 64.4705 26.3686 63.5807 26.0452C62.6908 25.7213 61.9364 25.2434 61.3175 24.6107C60.6984 23.9783 60.2245 23.1961 59.8956 22.2643C59.5667 21.3325 59.4023 20.2539 59.4023 19.0278C59.4023 17.8118 59.5667 16.7059 59.8956 15.7104C60.2243 14.7152 60.6886 13.8619 61.2884 13.1506C61.8879 12.4396 62.6158 11.8905 63.4716 11.503C64.3277 11.1156 65.2827 10.9219 66.3368 10.9219C67.3813 10.9219 68.3048 11.0863 69.1078 11.4148C69.9106 11.7434 70.5828 12.202 71.1243 12.7903C71.666 13.3789 72.0767 14.0801 72.3575 14.894C72.6382 15.7081 72.7784 16.6005 72.7784 17.5713ZM69.1806 17.0566C69.1902 16.468 69.1176 15.9557 68.963 15.5192C68.8082 15.0829 68.5978 14.7225 68.3319 14.4379C68.0659 14.1536 67.7563 13.9428 67.4035 13.8055C67.0502 13.6681 66.6707 13.5994 66.2646 13.5994C65.3746 13.5994 64.6446 13.9009 64.074 14.5041C63.5033 15.1072 63.1649 15.9583 63.0586 17.0566H69.1806Z" fill="#487BFF"/>
<path d="M87.9801 26.0459C87.3419 26.1932 86.6985 26.3107 86.0506 26.3989C85.4026 26.4872 84.7885 26.5315 84.2083 26.5315C83.2411 26.5315 82.4068 26.4282 81.7055 26.2225C81.0042 26.0164 80.424 25.7029 79.9644 25.281C79.5051 24.8597 79.1668 24.3225 78.949 23.67C78.7316 23.0179 78.6225 22.241 78.6225 21.3383V14.0415H74.6621V11.2462H78.6225V7.42112L82.2496 6.46484V11.246H87.9799V14.0413H82.2496V21.0732C82.2496 21.9265 82.4431 22.5715 82.8298 23.0078C83.2164 23.4441 83.8646 23.6623 84.7739 23.6623C85.3541 23.6623 85.92 23.6133 86.4713 23.515C87.0226 23.4174 87.5252 23.3043 87.9799 23.1769V26.0459H87.9801Z" fill="#487BFF"/>
<path d="M91.7305 26.1926V6.96484H97.8527C100.009 6.96484 101.627 7.34731 102.705 8.11226C103.784 8.8772 104.323 10.0345 104.323 11.5842C104.323 12.0648 104.267 12.533 104.156 12.9891C104.045 13.4452 103.873 13.8645 103.641 14.247C103.409 14.6294 103.119 14.9678 102.771 15.2621C102.422 15.5564 102.011 15.787 101.537 15.9534C102.011 16.0321 102.464 16.1866 102.894 16.417C103.324 16.6476 103.702 16.9465 104.025 17.3144C104.349 17.6823 104.606 18.1162 104.795 18.6166C104.983 19.1167 105.077 19.6758 105.077 20.2937C105.077 22.2552 104.429 23.7287 103.133 24.7145C101.837 25.7001 99.9656 26.193 97.5189 26.193H91.7305V26.1926ZM100.609 12.2169C100.609 11.8542 100.551 11.5254 100.435 11.2311C100.319 10.9368 100.133 10.6868 99.8764 10.4809C99.6201 10.2748 99.2912 10.1156 98.8899 10.0028C98.4886 9.89011 98.0027 9.83348 97.4321 9.83348H95.2704V14.9237H97.4321C98.0123 14.9237 98.503 14.8527 98.9047 14.7103C99.306 14.5684 99.6347 14.372 99.8912 14.1218C100.147 13.8718 100.331 13.5848 100.442 13.2612C100.554 12.9377 100.609 12.5897 100.609 12.2169ZM97.7658 23.2357C98.3362 23.2357 98.8367 23.1619 99.2671 23.0147C99.6975 22.8676 100.058 22.6646 100.348 22.4043C100.638 22.1446 100.858 21.8377 101.008 21.4846C101.158 21.1316 101.233 20.7542 101.233 20.3521C101.233 19.5186 100.926 18.8662 100.312 18.3955C99.6977 17.9248 98.7571 17.6894 97.4901 17.6894H95.2704V23.2357H97.7658Z" fill="#3C3C3C"/>
<path d="M121.487 18.6012C121.487 19.7782 121.322 20.8546 120.993 21.8303C120.665 22.8064 120.19 23.6423 119.572 24.3385C118.952 25.0351 118.193 25.5741 117.294 25.9568C116.394 26.3393 115.369 26.5308 114.218 26.5308C113.125 26.5308 112.148 26.3686 111.288 26.0452C110.427 25.7213 109.697 25.2386 109.097 24.5962C108.497 23.9538 108.038 23.1496 107.719 22.1834C107.4 21.2177 107.24 20.0923 107.24 18.8071C107.24 17.6207 107.407 16.5416 107.741 15.5706C108.075 14.5997 108.553 13.7711 109.177 13.0844C109.801 12.3982 110.563 11.866 111.462 11.4882C112.361 11.1108 113.377 10.9219 114.509 10.9219C115.611 10.9219 116.592 11.0863 117.454 11.4148C118.314 11.7434 119.045 12.2313 119.644 12.8785C120.244 13.5258 120.701 14.3277 121.015 15.284C121.329 16.2401 121.487 17.346 121.487 18.6012ZM117.802 18.6896C117.802 17.1401 117.514 15.9753 116.938 15.1956C116.363 14.4159 115.514 14.0259 114.392 14.0259C113.773 14.0259 113.246 14.1487 112.811 14.3936C112.376 14.639 112.018 14.9747 111.737 15.4013C111.457 15.8279 111.251 16.3258 111.121 16.8946C110.99 17.4635 110.925 18.0715 110.925 18.7189C110.925 20.2782 111.235 21.4529 111.853 22.2423C112.472 23.0317 113.319 23.4263 114.392 23.4263C114.982 23.4263 115.494 23.3064 115.93 23.0661C116.365 22.8258 116.718 22.4923 116.989 22.0657C117.259 21.6392 117.463 21.1365 117.598 20.5579C117.734 19.9794 117.802 19.3567 117.802 18.6896Z" fill="#3C3C3C"/>
<path d="M136.535 26.0459C135.897 26.1932 135.253 26.3107 134.605 26.3989C133.957 26.4872 133.343 26.5315 132.763 26.5315C131.796 26.5315 130.961 26.4282 130.26 26.2225C129.559 26.0164 128.979 25.7029 128.519 25.281C128.06 24.8597 127.721 24.3225 127.503 23.67C127.286 23.0179 127.177 22.241 127.177 21.3383V14.0415H123.217V11.2462H127.177V7.42112L130.804 6.46484V11.246H136.535V14.0413H130.804V21.0732C130.804 21.9265 130.998 22.5715 131.384 23.0078C131.771 23.4441 132.419 23.6623 133.328 23.6623C133.909 23.6623 134.474 23.6133 135.026 23.515C135.577 23.4174 136.08 23.3043 136.535 23.1769V26.0459H136.535Z" fill="#3C3C3C"/>
</svg>
