<svg width="32" height="32" viewBox="0 0 32 32" fill="none" xmlns="http://www.w3.org/2000/svg">
<path d="M6.15644 7.47571V13.187C6.15644 13.3113 6.20583 13.4305 6.29373 13.5184C6.38164 13.6063 6.50087 13.6557 6.62519 13.6557C6.74951 13.6557 6.86874 13.6063 6.95665 13.5184C7.04455 13.4305 7.09394 13.3113 7.09394 13.187V7.47571C7.4067 7.36514 7.67029 7.14756 7.83814 6.86143C8.00599 6.5753 8.06728 6.23904 8.01119 5.91209C7.95509 5.58514 7.78522 5.28854 7.53159 5.07473C7.27797 4.86091 6.95692 4.74364 6.62519 4.74364C6.29346 4.74364 5.97241 4.86091 5.71879 5.07473C5.46516 5.28854 5.29529 5.58514 5.23919 5.91209C5.1831 6.23904 5.24439 6.5753 5.41224 6.86143C5.58009 7.14756 5.84368 7.36514 6.15644 7.47571ZM6.62519 5.68696C6.7179 5.68696 6.80853 5.71446 6.88561 5.76596C6.9627 5.81747 7.02278 5.89068 7.05826 5.97633C7.09374 6.06198 7.10302 6.15623 7.08493 6.24716C7.06685 6.33809 7.0222 6.42161 6.95665 6.48717C6.89109 6.55273 6.80757 6.59737 6.71664 6.61546C6.62571 6.63354 6.53146 6.62426 6.44581 6.58878C6.36015 6.5533 6.28695 6.49322 6.23544 6.41614C6.18393 6.33905 6.15644 6.24842 6.15644 6.15571C6.15644 6.03139 6.20583 5.91217 6.29373 5.82426C6.38164 5.73635 6.50087 5.68696 6.62519 5.68696ZM14.5939 8.96821C14.5939 9.24634 14.6764 9.51823 14.8309 9.74948C14.9855 9.98074 15.2051 10.161 15.462 10.2674C15.719 10.3739 16.0017 10.4017 16.2745 10.3474C16.5473 10.2932 16.7979 10.1593 16.9946 9.96258C17.1912 9.76592 17.3252 9.51535 17.3794 9.24256C17.4337 8.96977 17.4058 8.68702 17.2994 8.43007C17.193 8.17311 17.0127 7.95348 16.7815 7.79896C16.5502 7.64444 16.2783 7.56196 16.0002 7.56196C15.6272 7.56196 15.2695 7.71012 15.0058 7.97385C14.7421 8.23757 14.5939 8.59525 14.5939 8.96821ZM16.4689 8.96821C16.4689 9.06092 16.4414 9.15155 16.3899 9.22864C16.3384 9.30572 16.2652 9.3658 16.1796 9.40128C16.0939 9.43676 15.9997 9.44604 15.9087 9.42796C15.8178 9.40987 15.7343 9.36523 15.6687 9.29967C15.6032 9.23411 15.5585 9.15059 15.5404 9.05966C15.5224 8.96873 15.5316 8.87448 15.5671 8.78883C15.6026 8.70318 15.6627 8.62997 15.7398 8.57846C15.8169 8.52696 15.9075 8.49946 16.0002 8.49946C16.1245 8.49946 16.2437 8.54885 16.3316 8.63676C16.4196 8.72467 16.4689 8.84389 16.4689 8.96821ZM17.6577 7.31071C17.2176 6.87196 16.6216 6.62558 16.0002 6.62558C15.3788 6.62558 14.7827 6.87196 14.3427 7.31071C14.2994 7.35548 14.2477 7.3912 14.1905 7.41576C14.1333 7.44033 14.0718 7.45326 14.0096 7.4538C13.9474 7.45434 13.8856 7.44248 13.828 7.41891C13.7704 7.39534 13.7181 7.36054 13.6741 7.31652C13.6301 7.27251 13.5952 7.22018 13.5717 7.16257C13.5481 7.10496 13.5363 7.04324 13.5368 6.98099C13.5373 6.91875 13.5503 6.85725 13.5748 6.80006C13.5994 6.74287 13.6351 6.69114 13.6799 6.6479C14.2958 6.03351 15.1302 5.68847 16.0002 5.68847C16.8701 5.68847 17.7046 6.03351 18.3205 6.6479C18.3653 6.69114 18.401 6.74287 18.4256 6.80006C18.4501 6.85725 18.463 6.91875 18.4636 6.98099C18.4641 7.04324 18.4523 7.10496 18.4287 7.16257C18.4051 7.22018 18.3703 7.27251 18.3263 7.31652C18.2823 7.36054 18.23 7.39534 18.1724 7.41891C18.1147 7.44248 18.053 7.45434 17.9908 7.4538C17.9285 7.45326 17.867 7.44033 17.8098 7.41576C17.7527 7.3912 17.7009 7.35548 17.6577 7.31071ZM18.9833 5.98509C18.1915 5.19506 17.1187 4.75137 16.0002 4.75137C14.8817 4.75137 13.8088 5.19506 13.0171 5.98509C12.9287 6.07048 12.8102 6.11772 12.6873 6.11665C12.5644 6.11559 12.4469 6.06629 12.36 5.97938C12.2731 5.89247 12.2238 5.7749 12.2227 5.652C12.2216 5.52909 12.2689 5.41068 12.3543 5.32228C13.322 4.35672 14.6332 3.81445 16.0002 3.81445C17.3672 3.81445 18.6784 4.35672 19.6461 5.32228C19.6909 5.36552 19.7266 5.41724 19.7512 5.47443C19.7757 5.53162 19.7887 5.59313 19.7892 5.65537C19.7898 5.71761 19.7779 5.77933 19.7543 5.83694C19.7308 5.89455 19.6959 5.94689 19.6519 5.9909C19.6079 6.03491 19.5556 6.06972 19.498 6.09329C19.4404 6.11686 19.3786 6.12872 19.3164 6.12818C19.2542 6.12763 19.1927 6.1147 19.1355 6.09014C19.0783 6.06557 19.0266 6.02986 18.9833 5.98509ZM6.79581 28.1101C7.34163 28.223 7.90573 28.213 8.44721 28.0808C8.98868 27.9487 9.49396 27.6977 9.92639 27.346C10.3588 26.9944 10.7076 26.5509 10.9474 26.0477C11.1871 25.5445 11.3119 24.9943 11.3127 24.437H20.6877C20.6872 25.1175 20.872 25.7853 21.2221 26.3688C21.5722 26.9523 22.0745 27.4296 22.6752 27.7494C23.2759 28.0692 23.9522 28.2196 24.6318 28.1844C25.3114 28.1491 25.9686 27.9296 26.533 27.5494C27.0974 27.1692 27.5476 26.6426 27.8355 26.0259C28.1234 25.4093 28.2381 24.726 28.1673 24.0492C28.0965 23.3724 27.8429 22.7276 27.4336 22.184C27.0243 21.6403 26.4748 21.2182 25.8439 20.9631V16.937C25.8439 16.8126 25.7946 16.6934 25.7066 16.6055C25.6187 16.5176 25.4995 16.4682 25.3752 16.4682H22.7971C22.6106 16.4682 22.4317 16.3941 22.2999 16.2623C22.168 16.1304 22.0939 15.9516 22.0939 15.7651C22.0939 15.5786 22.168 15.3998 22.2999 15.2679C22.4317 15.136 22.6106 15.062 22.7971 15.062H24.7808C24.8664 15.0626 24.9505 15.0398 25.024 14.996C25.0976 14.9522 25.1577 14.8891 25.1979 14.8136C25.2382 14.738 25.257 14.6529 25.2523 14.5675C25.2476 14.482 25.2196 14.3995 25.1713 14.3288C24.8268 13.8316 24.3668 13.4253 23.8309 13.1447C23.2949 12.8642 22.6989 12.7179 22.0939 12.7182H9.90644C9.09475 12.7188 8.30516 12.9827 7.65626 13.4703C7.00737 13.9579 6.53421 14.6429 6.30785 15.4224C6.28965 15.4907 6.28747 15.5623 6.3015 15.6316C6.31552 15.7009 6.34536 15.766 6.3887 15.8219C6.43203 15.8777 6.48768 15.9228 6.5513 15.9536C6.61493 15.9844 6.68481 16.0001 6.7555 15.9995H10.5393C10.8465 15.9995 11.1507 16.0601 11.4345 16.1779C11.7183 16.2956 11.976 16.4682 12.193 16.6857L13.4385 17.9312C13.5691 18.0618 13.7241 18.1655 13.8948 18.2362C14.0655 18.3069 14.2484 18.3432 14.4332 18.3432H24.4377C24.562 18.3432 24.6812 18.3926 24.7691 18.4805C24.8571 18.5684 24.9064 18.6876 24.9064 18.812C24.9064 18.9363 24.8571 19.0555 24.7691 19.1434C24.6812 19.2313 24.562 19.2807 24.4377 19.2807H14.4332C13.8117 19.2807 13.2156 19.0339 12.7761 18.5945L11.5302 17.3485C11.2666 17.0851 10.9091 16.937 10.5364 16.937H6.62519C6.50087 16.937 6.38164 16.9864 6.29373 17.0743C6.20583 17.1622 6.15644 17.2814 6.15644 17.4057V20.9631C5.41087 21.2646 4.78199 21.7979 4.36264 22.4841C3.94329 23.1704 3.75567 23.9733 3.82748 24.7743C3.8993 25.5754 4.22674 26.3321 4.76147 26.9328C5.2962 27.5335 6.0099 27.9464 6.79722 28.1106L6.79581 28.1101ZM24.4377 21.6245C24.9939 21.6245 25.5377 21.7894 26.0002 22.0985C26.4627 22.4075 26.8232 22.8468 27.0361 23.3607C27.249 23.8746 27.3047 24.4401 27.1961 24.9857C27.0876 25.5312 26.8198 26.0324 26.4264 26.4257C26.0331 26.819 25.532 27.0869 24.9864 27.1954C24.4408 27.3039 23.8753 27.2482 23.3614 27.0354C22.8475 26.8225 22.4082 26.462 22.0992 25.9995C21.7901 25.537 21.6252 24.9932 21.6252 24.437C21.6259 23.6913 21.9225 22.9763 22.4498 22.449C22.9771 21.9218 23.692 21.6252 24.4377 21.6245ZM7.56269 21.6245C8.11895 21.6245 8.66272 21.7894 9.12523 22.0985C9.58774 22.4075 9.94823 22.8468 10.1611 23.3607C10.374 23.8746 10.4297 24.4401 10.3211 24.9857C10.2126 25.5312 9.94476 26.0324 9.55143 26.4257C9.15809 26.819 8.65695 27.0869 8.11138 27.1954C7.56581 27.3039 7.00031 27.2482 6.48639 27.0354C5.97248 26.8225 5.53322 26.462 5.22418 25.9995C4.91514 25.537 4.75019 24.9932 4.75019 24.437C4.75093 23.6913 5.04749 22.9763 5.57477 22.449C6.10206 21.9218 6.817 21.6252 7.56269 21.6245ZM7.56269 26.312C7.93353 26.312 8.29604 26.202 8.60438 25.996C8.91273 25.7899 9.15305 25.4971 9.29496 25.1545C9.43688 24.8119 9.47401 24.4349 9.40166 24.0712C9.32931 23.7075 9.15074 23.3734 8.88851 23.1111C8.62629 22.8489 8.2922 22.6703 7.92848 22.598C7.56477 22.5256 7.18777 22.5628 6.84516 22.7047C6.50255 22.8466 6.20971 23.0869 6.00368 23.3953C5.79766 23.7036 5.68769 24.0661 5.68769 24.437C5.68769 24.9342 5.88523 25.4112 6.23686 25.7628C6.5885 26.1144 7.06541 26.312 7.56269 26.312ZM24.4377 26.312C24.8085 26.312 25.171 26.202 25.4794 25.996C25.7877 25.7899 26.028 25.4971 26.17 25.1545C26.3119 24.8119 26.349 24.4349 26.2767 24.0712C26.2043 23.7075 26.0257 23.3734 25.7635 23.1111C25.5013 22.8489 25.1672 22.6703 24.8035 22.598C24.4398 22.5256 24.0628 22.5628 23.7202 22.7047C23.3775 22.8466 23.0847 23.0869 22.8787 23.3953C22.6727 23.7036 22.5627 24.0661 22.5627 24.437C22.5627 24.9342 22.7602 25.4112 23.1119 25.7628C23.4635 26.1144 23.9404 26.312 24.4377 26.312Z" fill="#3C3C3C"/>
</svg>
