<svg width="32" height="32" viewBox="0 0 32 32" fill="none" xmlns="http://www.w3.org/2000/svg">
<g clip-path="url(#clip0_202_7381)">
<path d="M10.5547 19.9062V10.7266H8.36719C8.00459 10.7266 7.65684 10.8706 7.40044 11.127C7.14404 11.3834 7 11.7311 7 12.0938V24.6328C7 24.9954 7.14404 25.3432 7.40044 25.5996C7.65684 25.856 8.00459 26 8.36719 26H20.9062C21.2689 26 21.6166 25.856 21.873 25.5996C22.1294 25.3432 22.2734 24.9954 22.2734 24.6328V22.4453H13.0938C12.4206 22.4445 11.7753 22.1767 11.2993 21.7007C10.8233 21.2247 10.5555 20.5794 10.5547 19.9062Z" fill="#3C3C3C"/>
<path d="M25.6328 6H13.0938C12.7311 6 12.3834 6.14404 12.127 6.40044C11.8706 6.65684 11.7266 7.00459 11.7266 7.36719V19.9062C11.7266 20.2689 11.8706 20.6166 12.127 20.873C12.3834 21.1294 12.7311 21.2734 13.0938 21.2734H25.6328C25.9954 21.2734 26.3432 21.1294 26.5996 20.873C26.856 20.6166 27 20.2689 27 19.9062V7.36719C27 7.00459 26.856 6.65684 26.5996 6.40044C26.3432 6.14404 25.9954 6 25.6328 6ZM22.4883 14.2227H19.9492V16.7617C19.9492 16.9171 19.8875 17.0662 19.7776 17.176C19.6677 17.2859 19.5187 17.3477 19.3633 17.3477C19.2079 17.3477 19.0588 17.2859 18.949 17.176C18.8391 17.0662 18.7773 16.9171 18.7773 16.7617V14.2227H16.2383C16.0829 14.2227 15.9338 14.1609 15.824 14.051C15.7141 13.9412 15.6523 13.7921 15.6523 13.6367C15.6523 13.4813 15.7141 13.3323 15.824 13.2224C15.9338 13.1125 16.0829 13.0508 16.2383 13.0508H18.7773V10.5117C18.7773 10.3563 18.8391 10.2073 18.949 10.0974C19.0588 9.98751 19.2079 9.92578 19.3633 9.92578C19.5187 9.92578 19.6677 9.98751 19.7776 10.0974C19.8875 10.2073 19.9492 10.3563 19.9492 10.5117V13.0508H22.4883C22.6437 13.0508 22.7927 13.1125 22.9026 13.2224C23.0125 13.3323 23.0742 13.4813 23.0742 13.6367C23.0742 13.7921 23.0125 13.9412 22.9026 14.051C22.7927 14.1609 22.6437 14.2227 22.4883 14.2227Z" fill="#3C3C3C"/>
</g>
<defs>
<clipPath id="clip0_202_7381">
<rect width="20" height="20" fill="white" transform="translate(7 6)"/>
</clipPath>
</defs>
</svg>
