<svg width="32" height="32" viewBox="0 0 32 32" fill="none" xmlns="http://www.w3.org/2000/svg">
<path d="M27.2808 18.63L25.0748 16.905C25.1028 16.639 25.1268 16.328 25.1268 15.999C25.1268 15.67 25.1038 15.359 25.0748 15.093L27.2828 13.367C27.6928 13.043 27.8048 12.468 27.5438 11.989L25.2498 8.02C25.0048 7.57202 24.4678 7.342 23.9228 7.543L21.3198 8.58798C20.8208 8.22798 20.2978 7.924 19.7568 7.681L19.3608 4.92002C19.2958 4.396 18.8398 4 18.3008 4H13.7008C13.1618 4 12.7068 4.396 12.6428 4.912L12.2458 7.68302C11.7218 7.91903 11.2068 8.21903 10.6858 8.59L8.07583 7.54202C7.58678 7.35302 7.00178 7.56498 6.75878 8.011L4.46182 11.985C4.19083 12.443 4.30282 13.038 4.72183 13.37L6.92782 15.095C6.8928 15.432 6.87583 15.725 6.87583 16C6.87583 16.2751 6.89285 16.568 6.92782 16.906L4.71982 18.632C4.3098 18.957 4.1988 19.532 4.4598 20.01L6.75382 23.979C6.99883 24.426 7.53082 24.658 8.0808 24.456L10.6838 23.411C11.1818 23.77 11.7048 24.074 12.2458 24.318L12.6418 27.078C12.7068 27.604 13.1618 28 13.7018 28H18.3018C18.8408 28 19.2968 27.604 19.3608 27.088L19.7578 24.318C20.2818 24.081 20.7958 23.782 21.3178 23.41L23.9278 24.458C24.0538 24.507 24.1848 24.532 24.3198 24.532C24.7078 24.532 25.0648 24.32 25.2448 23.99L27.5488 20C27.8048 19.532 27.6928 18.957 27.2808 18.63ZM16.0008 20C13.7948 20 12.0008 18.206 12.0008 16C12.0008 13.794 13.7948 12 16.0008 12C18.2068 12 20.0008 13.794 20.0008 16C20.0008 18.206 18.2068 20 16.0008 20Z" fill="#3C3C3C"/>
</svg>
