<svg width="32" height="32" viewBox="0 0 32 32" fill="none" xmlns="http://www.w3.org/2000/svg">
<path d="M23.8356 7.15625H22.9688V6.4375C22.9688 6.24688 22.893 6.06406 22.7582 5.92927C22.6234 5.79448 22.4406 5.71875 22.25 5.71875C22.0594 5.71875 21.8766 5.79448 21.7418 5.92927C21.607 6.06406 21.5312 6.24688 21.5312 6.4375V7.15625H17.2188V6.4375C17.2188 6.24688 17.143 6.06406 17.0082 5.92927C16.8734 5.79448 16.6906 5.71875 16.5 5.71875C16.3094 5.71875 16.1266 5.79448 15.9918 5.92927C15.857 6.06406 15.7812 6.24688 15.7812 6.4375V7.15625H11.4688V6.4375C11.4688 6.24688 11.393 6.06406 11.2582 5.92927C11.1234 5.79448 10.9406 5.71875 10.75 5.71875C10.5594 5.71875 10.3766 5.79448 10.2418 5.92927C10.107 6.06406 10.0312 6.24688 10.0312 6.4375V7.15625H9.16444C8.44156 7.15739 7.74861 7.44506 7.23746 7.95621C6.72631 8.46736 6.43864 9.16031 6.4375 9.88319V24.5543C6.43864 25.2772 6.72631 25.9701 7.23746 26.4813C7.74861 26.9924 8.44156 27.2801 9.16444 27.2812H23.8356C24.5584 27.2801 25.2514 26.9924 25.7625 26.4813C26.2737 25.9701 26.5614 25.2772 26.5625 24.5543V9.88319C26.5614 9.16031 26.2737 8.46736 25.7625 7.95621C25.2514 7.44506 24.5584 7.15739 23.8356 7.15625ZM14.8512 19.8832L12.6949 22.0394C12.5602 22.1742 12.3774 22.2498 12.1868 22.2498C11.9962 22.2498 11.8134 22.1742 11.6786 22.0394L10.2411 20.6019C10.1725 20.5356 10.1177 20.4563 10.0801 20.3686C10.0424 20.2809 10.0226 20.1866 10.0217 20.0912C10.0209 19.9957 10.0391 19.9011 10.0752 19.8128C10.1114 19.7244 10.1647 19.6442 10.2322 19.5767C10.2997 19.5092 10.38 19.4558 10.4683 19.4197C10.5566 19.3836 10.6513 19.3654 10.7467 19.3662C10.8421 19.367 10.9364 19.3869 11.0241 19.4245C11.1118 19.4622 11.1911 19.5169 11.2574 19.5856L12.1875 20.5149L13.8356 18.8668C13.9712 18.7359 14.1527 18.6635 14.3412 18.6651C14.5296 18.6667 14.7099 18.7423 14.8432 18.8756C14.9764 19.0089 15.052 19.1891 15.0536 19.3776C15.0553 19.566 14.9828 19.7476 14.8519 19.8832H14.8512ZM14.8512 13.4144L12.6949 15.5707C12.5602 15.7054 12.3774 15.7811 12.1868 15.7811C11.9962 15.7811 11.8134 15.7054 11.6786 15.5707L10.2411 14.1332C10.1725 14.0669 10.1177 13.9875 10.0801 13.8999C10.0424 13.8122 10.0226 13.7178 10.0217 13.6224C10.0209 13.527 10.0391 13.4323 10.0752 13.344C10.1114 13.2557 10.1647 13.1754 10.2322 13.1079C10.2997 13.0404 10.38 12.9871 10.4683 12.9509C10.5566 12.9148 10.6513 12.8966 10.7467 12.8974C10.8421 12.8983 10.9364 12.9181 11.0241 12.9558C11.1118 12.9934 11.1911 13.0482 11.2574 13.1168L12.1875 14.0462L13.8356 12.3981C13.9712 12.2672 14.1527 12.1947 14.3412 12.1964C14.5296 12.198 14.7099 12.2736 14.8432 12.4068C14.9764 12.5401 15.052 12.7204 15.0536 12.9088C15.0553 13.0973 14.9828 13.2788 14.8519 13.4144H14.8512ZM22.25 21.5312H17.2188C17.0281 21.5312 16.8453 21.4555 16.7105 21.3207C16.5757 21.1859 16.5 21.0031 16.5 20.8125C16.5 20.6219 16.5757 20.4391 16.7105 20.3043C16.8453 20.1695 17.0281 20.0938 17.2188 20.0938H22.25C22.4406 20.0938 22.6234 20.1695 22.7582 20.3043C22.893 20.4391 22.9688 20.6219 22.9688 20.8125C22.9688 21.0031 22.893 21.1859 22.7582 21.3207C22.6234 21.4555 22.4406 21.5312 22.25 21.5312ZM22.25 15.0625H17.2188C17.0281 15.0625 16.8453 14.9868 16.7105 14.852C16.5757 14.7172 16.5 14.5344 16.5 14.3438C16.5 14.1531 16.5757 13.9703 16.7105 13.8355C16.8453 13.7007 17.0281 13.625 17.2188 13.625H22.25C22.4406 13.625 22.6234 13.7007 22.7582 13.8355C22.893 13.9703 22.9688 14.1531 22.9688 14.3438C22.9688 14.5344 22.893 14.7172 22.7582 14.852C22.6234 14.9868 22.4406 15.0625 22.25 15.0625Z" fill="#3C3C3C"/>
</svg>
