<svg width="16" height="16" viewBox="0 0 16 16" fill="none" xmlns="http://www.w3.org/2000/svg">
<path d="M12.9109 1.23251H12.3141V0.628628C12.3141 0.283594 12.0344 0.00390625 11.6894 0.00390625C11.3444 0.00390625 11.0647 0.283594 11.0647 0.628628V1.23251H4.9353V0.628628C4.9353 0.283594 4.65561 0.00390625 4.31058 0.00390625C3.96555 0.00390625 3.68586 0.283594 3.68586 0.628628V1.23251H3.08909C1.38576 1.23251 0 2.61827 0 4.32157V12.9077C0 14.611 1.38576 15.9968 3.08909 15.9968H12.9109C14.6142 15.9968 16 14.611 16 12.9077V4.32157C16 2.61827 14.6142 1.23251 12.9109 1.23251V1.23251ZM3.08909 2.48196H3.68586V3.70016C3.68586 4.0452 3.96555 4.32488 4.31058 4.32488C4.65561 4.32488 4.9353 4.0452 4.9353 3.70016V2.48196H11.0647V3.70016C11.0647 4.0452 11.3444 4.32488 11.6894 4.32488C12.0345 4.32488 12.3141 4.0452 12.3141 3.70016V2.48196H12.9109C13.9253 2.48196 14.7506 3.30721 14.7506 4.32157V4.91837H1.24944V4.32157C1.24944 3.30721 2.0747 2.48196 3.08909 2.48196V2.48196ZM12.9109 14.7473H3.08909C2.0747 14.7473 1.24944 13.9221 1.24944 12.9077V6.16781H14.7506V12.9077C14.7506 13.9221 13.9253 14.7473 12.9109 14.7473V14.7473ZM5.54962 8.62506C5.54962 8.97009 5.26993 9.24978 4.9249 9.24978H3.69629C3.35126 9.24978 3.07157 8.97009 3.07157 8.62506C3.07157 8.28003 3.35126 8.00034 3.69629 8.00034H4.9249C5.2699 8.00034 5.54962 8.28003 5.54962 8.62506ZM12.9285 8.62506C12.9285 8.97009 12.6488 9.24978 12.3037 9.24978H11.0751C10.7301 9.24978 10.4504 8.97009 10.4504 8.62506C10.4504 8.28003 10.7301 8.00034 11.0751 8.00034H12.3037C12.6487 8.00034 12.9285 8.28003 12.9285 8.62506V8.62506ZM9.23548 8.62506C9.23548 8.97009 8.95579 9.24978 8.61076 9.24978H7.38215C7.03712 9.24978 6.75743 8.97009 6.75743 8.62506C6.75743 8.28003 7.03712 8.00034 7.38215 8.00034H8.61076C8.95576 8.00034 9.23548 8.28003 9.23548 8.62506ZM5.54962 12.3109C5.54962 12.6559 5.26993 12.9356 4.9249 12.9356H3.69629C3.35126 12.9356 3.07157 12.6559 3.07157 12.3109C3.07157 11.9659 3.35126 11.6862 3.69629 11.6862H4.9249C5.2699 11.6862 5.54962 11.9659 5.54962 12.3109ZM12.9285 12.3109C12.9285 12.6559 12.6488 12.9356 12.3037 12.9356H11.0751C10.7301 12.9356 10.4504 12.6559 10.4504 12.3109C10.4504 11.9659 10.7301 11.6862 11.0751 11.6862H12.3037C12.6487 11.6862 12.9285 11.9659 12.9285 12.3109V12.3109ZM9.23548 12.3109C9.23548 12.6559 8.95579 12.9356 8.61076 12.9356H7.38215C7.03712 12.9356 6.75743 12.6559 6.75743 12.3109C6.75743 11.9659 7.03712 11.6862 7.38215 11.6862H8.61076C8.95576 11.6862 9.23548 11.9659 9.23548 12.3109Z" fill="black"/>
</svg>
