<svg width="16" height="16" viewBox="0 0 16 16" fill="none" xmlns="http://www.w3.org/2000/svg">
<g clip-path="url(#clip0_202_11964)">
<path d="M8.00005 15.9922C0.898874 15.9851 -2.673 7.36112 2.34325 2.33535C5.32102 -0.767803 10.6791 -0.768303 13.6569 2.33547C18.6731 7.36168 15.1008 15.9855 8.00005 15.9922ZM8.00005 1.24222C4.27809 1.24222 1.25006 4.27025 1.25006 7.99221C1.62084 16.947 14.3806 16.9444 14.75 7.99215C14.75 4.27028 11.722 1.24222 8.00005 1.24222ZM10.9107 10.019L8.93611 8.0444C8.95349 7.75277 8.82911 7.47405 8.62474 7.29318C8.62493 7.28665 8.62505 7.28009 8.62505 7.27349V3.61725C8.59205 2.788 7.40777 2.78863 7.37505 3.61725V7.27349C7.37505 7.28009 7.37518 7.28665 7.37537 7.29318C6.72177 7.87824 7.16515 8.97399 8.05221 8.9283L10.0268 10.9029C10.2709 11.147 10.6666 11.147 10.9107 10.9029C11.1548 10.6588 11.1548 10.2631 10.9107 10.019Z" fill="black"/>
</g>
<defs>
<clipPath id="clip0_202_11964">
<rect width="16" height="16" fill="white"/>
</clipPath>
</defs>
</svg>
