<svg width="16" height="16" viewBox="0 0 16 16" fill="none" xmlns="http://www.w3.org/2000/svg">
<path d="M10.9101 15.0009H5.09009C4.43192 15.0254 3.79069 14.7891 3.30573 14.3435C2.82077 13.8978 2.53125 13.2788 2.50009 12.6209V9.50095C2.50009 9.36834 2.55277 9.24116 2.64654 9.14739C2.74031 9.05362 2.86748 9.00095 3.00009 9.00095C3.1327 9.00095 3.25988 9.05362 3.35365 9.14739C3.44741 9.24116 3.50009 9.36834 3.50009 9.50095V12.6209C3.53082 13.0137 3.71481 13.3785 4.01231 13.6368C4.30981 13.895 4.69695 14.0258 5.09009 14.0009H10.9101C11.3032 14.0258 11.6904 13.895 11.9879 13.6368C12.2854 13.3785 12.4694 13.0137 12.5001 12.6209V9.50095C12.5001 9.36834 12.5528 9.24116 12.6465 9.14739C12.7403 9.05362 12.8675 9.00095 13.0001 9.00095C13.1327 9.00095 13.2599 9.05362 13.3536 9.14739C13.4474 9.24116 13.5001 9.36834 13.5001 9.50095V12.6209C13.4689 13.2788 13.1794 13.8978 12.6945 14.3435C12.2095 14.7891 11.5683 15.0254 10.9101 15.0009ZM14.8551 8.35595C14.902 8.30946 14.9391 8.25416 14.9645 8.19323C14.9899 8.1323 15.003 8.06695 15.003 8.00095C15.003 7.93494 14.9899 7.86959 14.9645 7.80866C14.9391 7.74773 14.902 7.69243 14.8551 7.64595L8.35509 1.14595C8.30861 1.09908 8.25331 1.06188 8.19238 1.0365C8.13145 1.01112 8.0661 0.998047 8.00009 0.998047C7.93408 0.998047 7.86873 1.01112 7.8078 1.0365C7.74687 1.06188 7.69157 1.09908 7.64509 1.14595L1.14509 7.64595C1.05094 7.7401 0.998047 7.86779 0.998047 8.00095C0.998047 8.1341 1.05094 8.26179 1.14509 8.35595C1.23924 8.4501 1.36694 8.50299 1.50009 8.50299C1.63324 8.50299 1.76094 8.4501 1.85509 8.35595L8.00009 2.20595L14.1451 8.35595C14.1916 8.40281 14.2469 8.44001 14.3078 8.46539C14.3687 8.49078 14.4341 8.50385 14.5001 8.50385C14.5661 8.50385 14.6314 8.49078 14.6924 8.46539C14.7533 8.44001 14.8086 8.40281 14.8551 8.35595Z" fill="#3C3C3C"/>
</svg>
